<?xml version="1.0" encoding="UTF-8" standalone="no"?>
<!DOCTYPE svg PUBLIC "-//W3C//DTD SVG 1.1//EN" "http://www.w3.org/Graphics/SVG/1.1/DTD/svg11.dtd">
<svg width="100%" height="100%" viewBox="0 0 1102 221" version="1.1" xmlns="http://www.w3.org/2000/svg" xmlns:xlink="http://www.w3.org/1999/xlink" xml:space="preserve" style="fill-rule:evenodd;clip-rule:evenodd;stroke-linejoin:round;stroke-miterlimit:1.41421;">
    <g transform="matrix(1,0,0,1,-48.1018,-79.356)">
        <g transform="matrix(0.733333,5.84322e-32,6.13797e-32,0.733333,-245.232,-323.64)">
            <path d="M680,745.833C673.874,748.513 667.109,750 660,750C652.891,750 646.126,748.513 640,745.833L640,776.906C640,776.906 600.845,799.512 577.321,813.094C572.727,815.746 569.375,820.115 568.002,825.238C566.629,830.362 567.348,835.821 570,840.415C570,840.415 570,840.415 570,840.415C575.523,849.98 587.755,853.258 597.321,847.735C618.323,835.61 653.012,815.581 670,805.774C676.188,802.201 680,795.598 680,788.453C680,772.546 680,745.833 680,745.833ZM420,745.833C426.126,748.513 432.891,750 440,750C447.109,750 453.874,748.513 460,745.833L460,776.906C460,776.906 499.157,799.513 522.681,813.095C532.246,818.617 535.523,830.848 530.001,840.413C530.001,840.413 530,840.414 530,840.415C527.348,845.008 522.979,848.36 517.856,849.733C512.732,851.106 507.273,850.387 502.679,847.735C481.677,835.61 446.988,815.581 430,805.774C423.812,802.201 420,795.598 420,788.453C420,772.546 420,745.833 420,745.833ZM440,660C462.077,660 480,677.923 480,700C480,722.077 462.077,740 440,740C417.923,740 400,722.077 400,700C400,677.923 417.923,660 440,660ZM660,660C637.923,660 620,677.923 620,700C620,722.077 637.923,740 660,740C682.077,740 700,722.077 700,700C700,677.923 682.077,660 660,660ZM420,611.547C420,604.402 423.812,597.799 430,594.226C446.988,584.419 481.677,564.39 502.679,552.265C512.245,546.742 524.477,550.02 530,559.585C530,559.585 530,559.585 530,559.585C532.652,564.179 533.371,569.638 531.998,574.762C530.625,579.885 527.273,584.254 522.679,586.906C499.155,600.488 460,623.094 460,623.094L460,654.167C453.874,651.487 447.109,650 440,650C432.891,650 426.126,651.487 420,654.167C420,654.167 420,627.454 420,611.547ZM680,611.547C680,604.402 676.188,597.799 670,594.226C652.985,584.403 618.212,564.327 597.22,552.207C587.71,546.716 575.549,549.975 570.058,559.485C570.058,559.486 570.057,559.486 570.057,559.487C564.503,569.107 567.799,581.409 577.419,586.963C600.954,600.551 640,623.094 640,623.094L640,654.167C646.126,651.487 652.891,650 660,650C667.109,650 673.874,651.487 680,654.167C680,654.167 680,627.454 680,611.547Z" style="fill:white;"/>
        </g>
        <g transform="matrix(0.737252,0,0,0.737252,236.918,-239.838)">
            <path d="M165.091,542.945C150.993,542.945 139.161,547.98 130.853,556.288L130.853,481.518L96.867,481.518L96.867,670.33L130.853,670.33L130.853,597.826C130.853,583.477 140.672,573.659 154.518,573.659C168.364,573.659 177.679,583.225 177.679,597.826L177.679,670.33L211.413,670.33L211.413,593.043C211.413,563.085 193.539,542.945 165.091,542.945Z" style="fill:white;fill-rule:nonzero;"/>
            <path d="M357.68,545.714L323.694,545.714L323.694,618.218C323.694,632.82 313.372,642.134 300.533,642.134C287.19,642.134 276.868,632.82 276.868,618.218L276.868,545.714L242.882,545.714L242.882,615.449C242.882,650.694 267.553,673.351 300.533,673.351C333.008,673.351 357.68,650.694 357.68,615.449L357.68,545.714Z" style="fill:white;fill-rule:nonzero;"/>
            <path d="M461.4,542.945C445.792,542.945 432.701,548.232 424.142,557.798L424.142,481.518L390.155,481.518L390.155,670.33L421.372,670.33L421.372,654.722C429.932,666.554 444.282,673.351 461.4,673.351C496.645,673.351 521.82,645.659 521.82,608.148C521.82,570.638 496.645,542.945 461.4,542.945ZM455.107,642.386C439.498,642.386 423.638,632.064 423.638,608.148C423.638,584.484 439.247,573.659 455.107,573.659C472.729,573.659 487.331,586.749 487.331,607.896C487.331,629.043 472.981,642.386 455.107,642.386Z" style="fill:white;fill-rule:nonzero;"/>
            <path d="M628.31,545.714L596.842,616.456L565.373,545.714L529.625,545.714L591.303,673.351L602.632,673.351L664.311,545.714L628.31,545.714Z" style="fill:white;fill-rule:nonzero;"/>
            <path d="M701.066,479.252C688.982,479.252 679.416,488.315 679.416,500.399C679.416,512.232 688.982,521.295 701.066,521.295C713.15,521.295 722.968,512.232 722.968,500.399C722.968,488.315 713.15,479.252 701.066,479.252ZM718.185,545.714L684.199,545.714L684.199,670.33L718.185,670.33L718.185,545.714Z" style="fill:white;fill-rule:nonzero;"/>
            <path d="M794.213,542.693C767.78,542.693 748.395,556.288 748.395,580.204C748.395,599.84 761.234,609.659 782.381,618.218L795.724,623.757C803.276,627.029 808.563,629.295 808.563,635.085C808.563,642.134 801.262,645.407 792.703,645.407C779.36,645.407 767.78,638.862 757.71,628.54L740.591,649.183C751.668,663.785 770.045,673.351 792.199,673.351C819.388,673.351 840.787,659.253 840.787,633.575C840.787,614.19 828.2,604.624 805.794,595.561L793.71,590.526C784.647,587.001 780.619,584.484 780.619,579.449C780.619,573.407 785.906,570.638 793.962,570.638C804.032,570.638 813.85,574.917 821.906,582.47L839.025,561.575C827.696,548.987 812.339,542.693 794.213,542.693Z" style="fill:white;fill-rule:nonzero;"/>
            <path d="M926.13,542.945C888.871,542.945 859.416,571.141 859.416,607.896C859.416,644.904 888.871,673.1 925.878,673.1C962.886,673.1 993.095,644.904 993.095,607.896C993.095,571.141 962.886,542.945 926.13,542.945ZM926.13,573.91C944.508,573.91 958.354,588.512 958.354,608.148C958.354,627.533 944.508,641.883 926.13,641.883C907.249,641.883 893.906,627.785 893.906,608.148C893.906,588.512 907.249,573.91 926.13,573.91Z" style="fill:white;fill-rule:nonzero;"/>
            <path d="M1084.98,544.204C1071.39,544.204 1059.05,549.994 1050.75,560.819L1050.75,545.714L1019.53,545.714L1019.53,670.33L1053.52,670.33L1053.52,608.148C1053.52,585.742 1067.36,575.673 1087,575.673L1096.06,575.673L1096.06,545.714C1092.79,544.707 1089.52,544.204 1084.98,544.204Z" style="fill:white;fill-rule:nonzero;"/>
            <path d="M1202.3,545.714L1169.82,627.533L1139.36,545.714L1103.36,545.714L1151.19,663.03L1147.42,671.337C1141.12,685.435 1132.31,688.205 1121.49,688.205C1117.46,688.205 1112.68,687.701 1106.89,687.198L1106.89,715.645C1113.43,717.407 1121.74,718.666 1128.79,718.666C1152.2,718.666 1167.05,706.834 1178.38,681.156L1238.05,545.714L1202.3,545.714Z" style="fill:white;fill-rule:nonzero;"/>
        </g>
    </g>
</svg>
